<?xml version="1.0" encoding="utf-8"?>
<!-- Generator: Adobe Illustrator 22.1.0, SVG Export Plug-In . SVG Version: 6.00 Build 0)  -->
<svg version="1.1" id="Layer_1" xmlns="http://www.w3.org/2000/svg" xmlns:xlink="http://www.w3.org/1999/xlink" x="0px" y="0px"
	 viewBox="0 0 47.4 35.5" style="enable-background:new 0 0 47.4 35.5;" xml:space="preserve">
<style type="text/css">
	.st0{fill:#FFFFFF;}
</style>
<g>
	<path class="st0" d="M19.9,27.6c3.6,0,4.2-4.9,1.3-10.8l-2.8-5.8c-2.9-5.9-6.7-7.8-8.5-4S8.2,16.8,10,20.6S16.3,27.6,19.9,27.6z"/>
</g>
<g>
	<path class="st0" d="M27.5,0c-3.6,0-4.2,4.9-1.3,10.8l2.8,5.8c2.9,5.9,6.7,7.8,8.5,4c1.8-3.7,1.8-9.9-0.1-13.7S31.1,0,27.5,0z"/>
</g>
<g>
	<path class="st0" d="M1.4,24.7c-0.8,1.6-0.1,2.9,1.4,2.9s2.2-1.3,1.4-2.9C3.4,23.1,2.2,23.1,1.4,24.7z"/>
</g>
<g>
	<path class="st0" d="M43.1,3c-0.8-1.6-0.1-3,1.4-3c1.6,0,2.2,1.3,1.4,3S43.9,4.6,43.1,3z"/>
</g>
<g>
	<path class="st0" d="M28.9,32.5c-0.8-1.6-0.1-3,1.4-3s2.2,1.3,1.4,3C31,34.1,29.7,34.1,28.9,32.5z"/>
</g>
</svg>
